<?xml version="1.0" standalone="no"?><svg xmlns="http://www.w3.org/2000/svg" viewBox="0 0 1440 320"><path fill="#5000ca" fill-opacity="1" d="M0,128L26.7,160C53.3,192,107,256,160,272C213.3,288,267,256,320,250.7C373.3,245,427,267,480,240C533.3,213,587,139,640,128C693.3,117,747,171,800,181.3C853.3,192,907,160,960,170.7C1013.3,181,1067,235,1120,218.7C1173.3,203,1227,117,1280,101.3C1333.3,85,1387,139,1413,165.3L1440,192L1440,320L1413.3,320C1386.7,320,1333,320,1280,320C1226.7,320,1173,320,1120,320C1066.7,320,1013,320,960,320C906.7,320,853,320,800,320C746.7,320,693,320,640,320C586.7,320,533,320,480,320C426.7,320,373,320,320,320C266.7,320,213,320,160,320C106.7,320,53,320,27,320L0,320Z"></path></svg>